<?xml version="1.0" encoding="utf-8"?>
<!-- Generator: Adobe Illustrator 22.0.1, SVG Export Plug-In . SVG Version: 6.00 Build 0)  -->
<svg version="1.1" id="Слой_1" xmlns="http://www.w3.org/2000/svg" xmlns:xlink="http://www.w3.org/1999/xlink" x="0px" y="0px"
	 viewBox="0 0 75.79 63.154" style="enable-background:new 0 0 75.79 63.154;" xml:space="preserve">
<g id="Слой_2_1_">
	<path style="fill:none;stroke:#A1E1F7;stroke-width:2;stroke-linecap:round;stroke-miterlimit:10;" d="M49.464,6.67h7.22
		c2.031,0,3.678,1.647,3.678,3.678V32.65"/>
	
		<line style="fill:none;stroke:#A1E1F7;stroke-width:2;stroke-linecap:round;stroke-miterlimit:10;" x1="33.958" y1="6.67" x2="43.335" y2="6.67"/>
	
		<line style="fill:none;stroke:#A1E1F7;stroke-width:2;stroke-linecap:round;stroke-miterlimit:10;" x1="18.316" y1="6.67" x2="26.715" y2="6.67"/>
	<path style="fill:none;stroke:#A1E1F7;stroke-width:2;stroke-linecap:round;stroke-miterlimit:10;" d="M41.891,58.264H4.678
		C2.647,58.264,1,56.617,1,54.586V10.348C1,8.316,2.647,6.67,4.678,6.67h7.238"/>
	<path style="fill:none;stroke:#A1E1F7;stroke-width:2;stroke-linecap:round;stroke-miterlimit:10;" d="M14.945,1.165h0.79
		c1.393,0,2.523,1.129,2.523,2.523v5.67c0,1.393-1.129,2.523-2.523,2.523h-0.79c-1.393,0-2.523-1.129-2.523-2.523v-5.67
		C12.422,2.294,13.552,1.165,14.945,1.165z"/>
	<path style="fill:none;stroke:#A1E1F7;stroke-width:2;stroke-linecap:round;stroke-miterlimit:10;" d="M30.622,1h0.79
		c1.393,0,2.523,1.129,2.523,2.523v5.67c0,1.393-1.129,2.523-2.523,2.523h-0.79c-1.393,0-2.523-1.129-2.523-2.523v-5.67
		C28.1,2.129,29.229,1,30.622,1z"/>
	<path style="fill:none;stroke:#A1E1F7;stroke-width:2;stroke-linecap:round;stroke-miterlimit:10;" d="M46.087,1.165h0.79
		c1.393,0,2.523,1.129,2.523,2.523v5.67c0,1.393-1.129,2.523-2.523,2.523h-0.79c-1.393,0-2.523-1.129-2.523-2.523v-5.67
		C43.565,2.294,44.694,1.165,46.087,1.165z"/>
	
		<line style="fill:none;stroke:#A1E1F7;stroke-width:2;stroke-linecap:round;stroke-miterlimit:10;" x1="1.707" y1="17.856" x2="60.362" y2="17.856"/>
	
		<circle style="fill:none;stroke:#A1E1F7;stroke-width:2;stroke-linecap:round;stroke-miterlimit:10;" cx="17.774" cy="24.681" r="2.44"/>
	
		<circle style="fill:none;stroke:#A1E1F7;stroke-width:2;stroke-linecap:round;stroke-miterlimit:10;" cx="26.532" cy="24.681" r="2.44"/>
	
		<circle style="fill:none;stroke:#A1E1F7;stroke-width:2;stroke-linecap:round;stroke-miterlimit:10;" cx="35.29" cy="24.681" r="2.44"/>
	
		<circle style="fill:none;stroke:#A1E1F7;stroke-width:2;stroke-linecap:round;stroke-miterlimit:10;" cx="44.048" cy="24.681" r="2.44"/>
	
		<circle style="fill:none;stroke:#A1E1F7;stroke-width:2;stroke-linecap:round;stroke-miterlimit:10;" cx="52.818" cy="24.681" r="2.44"/>
	
		<circle style="fill:none;stroke:#A1E1F7;stroke-width:2;stroke-linecap:round;stroke-miterlimit:10;" cx="9.004" cy="33.439" r="2.44"/>
	
		<circle style="fill:none;stroke:#A1E1F7;stroke-width:2;stroke-linecap:round;stroke-miterlimit:10;" cx="17.774" cy="33.439" r="2.44"/>
	
		<circle style="fill:none;stroke:#A1E1F7;stroke-width:2;stroke-linecap:round;stroke-miterlimit:10;" cx="26.532" cy="33.439" r="2.44"/>
	
		<circle style="fill:none;stroke:#A1E1F7;stroke-width:2;stroke-linecap:round;stroke-miterlimit:10;" cx="35.29" cy="33.439" r="2.44"/>
	
		<circle style="fill:none;stroke:#A1E1F7;stroke-width:2;stroke-linecap:round;stroke-miterlimit:10;" cx="44.048" cy="33.439" r="2.44"/>
	
		<circle style="fill:none;stroke:#A1E1F7;stroke-width:2;stroke-linecap:round;stroke-miterlimit:10;" cx="9.004" cy="42.197" r="2.44"/>
	
		<circle style="fill:none;stroke:#A1E1F7;stroke-width:2;stroke-linecap:round;stroke-miterlimit:10;" cx="17.774" cy="42.197" r="2.44"/>
	
		<circle style="fill:none;stroke:#A1E1F7;stroke-width:2;stroke-linecap:round;stroke-miterlimit:10;" cx="26.532" cy="42.197" r="2.44"/>
	
		<circle style="fill:none;stroke:#A1E1F7;stroke-width:2;stroke-linecap:round;stroke-miterlimit:10;" cx="35.29" cy="42.197" r="2.44"/>
	
		<circle style="fill:none;stroke:#A1E1F7;stroke-width:2;stroke-linecap:round;stroke-miterlimit:10;" cx="9.004" cy="50.956" r="2.44"/>
	
		<circle style="fill:none;stroke:#A1E1F7;stroke-width:2;stroke-linecap:round;stroke-miterlimit:10;" cx="17.774" cy="50.956" r="2.44"/>
	
		<circle style="fill:none;stroke:#A1E1F7;stroke-width:2;stroke-linecap:round;stroke-miterlimit:10;" cx="26.532" cy="50.956" r="2.44"/>
	
		<circle style="fill:none;stroke:#A1E1F7;stroke-width:2;stroke-linecap:round;stroke-miterlimit:10;" cx="35.372" cy="50.956" r="2.44"/>
</g>
<g id="Слой_3">
	<g id="Слой_1-2">
		
			<circle style="fill:none;stroke:#A1E1F7;stroke-width:2;stroke-linecap:round;stroke-miterlimit:10;" cx="60.185" cy="47.549" r="14.605"/>
		<polyline style="fill:none;stroke:#A1E1F7;stroke-width:2;stroke-linecap:round;stroke-linejoin:round;" points="53.301,47.549 
			58.17,52.417 67.906,41.714 		"/>
	</g>
</g>
</svg>
