<?xml version="1.0" encoding="utf-8"?>
<!-- Generator: Adobe Illustrator 22.0.1, SVG Export Plug-In . SVG Version: 6.00 Build 0)  -->
<svg version="1.1" id="Слой_1" xmlns="http://www.w3.org/2000/svg" xmlns:xlink="http://www.w3.org/1999/xlink" x="0px" y="0px"
	 viewBox="0 0 100 100" style="enable-background:new 0 0 100 100;" xml:space="preserve">
<circle style="fill:#A1E1F7;" cx="50" cy="50" r="50"/>
<g transform="translate(0,-270.54165)">
	<path style="fill:none;stroke:#FFFFFF;stroke-width:2;stroke-linecap:round;stroke-linejoin:round;stroke-miterlimit:10;" d="
		M67.067,323.447v16.506h-4.876v-20.724c0-2.017,1.64-3.657,3.657-3.657c2.017,0,3.657,1.64,3.657,3.657
		c0,1.298-0.701,2.51-1.83,3.164C67.298,322.611,67.067,323.012,67.067,323.447z M32.325,322.392
		c-1.129-0.654-1.83-1.866-1.83-3.164c0-2.017,1.64-3.657,3.657-3.657s3.657,1.64,3.657,3.657v20.724h-4.876v-16.506
		C32.933,323.012,32.702,322.61,32.325,322.392z M62.174,339.952H37.902 M37.902,330.2h24.272 M58.512,305.819h2.459
		c2.017,0,3.657,1.64,3.657,3.657v6.201 M35.371,315.677v-6.201c0-2.017,1.64-3.657,3.657-3.657h7.756"/>
	<path style="fill:none;stroke:#FFFFFF;stroke-width:2;stroke-linecap:round;stroke-linejoin:round;stroke-miterlimit:10;" d="
		M59.59,294.735c-0.456,0.009-0.876,0.252-1.111,0.644l0,0l-4.333,7.409c-2.188-0.764-4.479-0.352-5.612,1.197l0,0
		c-2.27,3.351-3.741,4.766-9.288,7.495c-0.155,0.071-0.223,0.255-0.151,0.41c0.003,0.007,0.006,0.013,0.01,0.019
		c0.022,0.047,0.056,0.087,0.099,0.116l3.033,2.145c0.066,0.047,0.147,0.067,0.227,0.056c0.732-0.098,1.438-0.34,2.076-0.712
		c-0.202,0.478-0.462,0.931-0.772,1.347c-0.096,0.138-0.066,0.328,0.069,0.429l0,0l2.145,1.514c0.109,0.077,0.255,0.077,0.365,0
		c0.579-0.429,1.081-0.914,1.973-2.377c0,0.189,0,0.386,0,0.987l0,0c-0.086,0.765-0.349,1.5-0.768,2.145
		c-0.089,0.144-0.05,0.333,0.09,0.429l1.703,1.188c0.123,0.086,0.29,0.073,0.399-0.03c0.33-0.334,0.618-0.707,0.858-1.111
		c0.151,0.285,0.233,0.6,0.24,0.922c0.019,0.32-0.019,0.641-0.112,0.948c-0.032,0.127,0.017,0.26,0.124,0.335l1.81,1.287
		c0.14,0.097,0.332,0.062,0.429-0.077c0.036-0.05,0.057-0.11,0.06-0.172c0.034-1.716,0.742-4.35,2.514-7.439l0,0
		c0.348-0.609,0.807-1.437,1.21-2.115l0,0l1.128-1.931l0,0c0-0.034,0.051-0.086,0.082-0.146c0.038-0.057,0.067-0.119,0.086-0.184
		c0.772-1.716,0-3.891-1.763-5.376l4.342-7.405l0,0c0.362-0.611,0.161-1.401-0.451-1.763c-0.01-0.006-0.02-0.011-0.03-0.017l0,0
		c-0.208-0.117-0.444-0.176-0.682-0.172V294.735z"/>
	<path style="fill:none;stroke:#FFFFFF;stroke-width:2;stroke-linecap:round;stroke-linejoin:round;stroke-miterlimit:10;" d="
		M45.098,302.235L45.098,302.235c-0.287-1.308-1.309-2.33-2.617-2.617l0,0c1.307-0.288,2.326-1.31,2.613-2.617l0,0
		c0.287,1.308,1.309,2.33,2.617,2.617l0,0c-1.308,0.287-2.33,1.309-2.617,2.617H45.098z"/>
	
		<line style="fill:none;stroke:#FFFFFF;stroke-width:2;stroke-linecap:round;stroke-linejoin:round;stroke-miterlimit:10;" x1="48.702" y1="303.856" x2="57.965" y2="309.785"/>
</g>
</svg>
