<?xml version="1.0" encoding="utf-8"?>
<!-- Generator: Adobe Illustrator 22.0.1, SVG Export Plug-In . SVG Version: 6.00 Build 0)  -->
<svg version="1.1" id="Слой_1" xmlns="http://www.w3.org/2000/svg" xmlns:xlink="http://www.w3.org/1999/xlink" x="0px" y="0px"
	 viewBox="0 0 64.8 66" style="enable-background:new 0 0 64.8 66;" xml:space="preserve">
<g>
	
		<line style="fill:none;stroke:#A1E1F7;stroke-width:2;stroke-linecap:round;stroke-linejoin:round;stroke-miterlimit:10;" x1="1" y1="21.1" x2="8.6" y2="11.4"/>
	
		<polyline style="fill:none;stroke:#A1E1F7;stroke-width:2;stroke-linecap:round;stroke-linejoin:round;stroke-miterlimit:10;" points="
		1,65 1,21.1 23.7,43.7 	"/>
	<path style="fill:none;stroke:#A1E1F7;stroke-width:2;stroke-linecap:round;stroke-linejoin:round;stroke-miterlimit:10;" d="
		M41.1,43.8l-7.9,7.9C33,51.9,32.7,52,32.5,52c-0.3,0-0.5-0.1-0.8-0.3l-8-8L1.3,65h62.1L41.1,43.8z M36.8,55.5H28 M41.4,59.8h-18"/>
	
		<line style="fill:none;stroke:#A1E1F7;stroke-width:2;stroke-linecap:round;stroke-linejoin:round;stroke-miterlimit:10;" x1="56.2" y1="11.4" x2="63.8" y2="21.2"/>
	
		<polyline style="fill:none;stroke:#A1E1F7;stroke-width:2;stroke-linecap:round;stroke-linejoin:round;stroke-miterlimit:10;" points="
		41.1,43.8 63.8,21.2 63.8,65 	"/>
	<g>
		<path style="fill:none;stroke:#A1E1F7;stroke-width:2;stroke-linecap:round;stroke-linejoin:round;stroke-miterlimit:10;" d="
			M28.7,18.5l3.1,3.1l7.4-7.4"/>
		<path style="fill:none;stroke:#A1E1F7;stroke-width:2;stroke-linecap:round;stroke-linejoin:round;stroke-miterlimit:10;" d="
			M54,30.6V2.7C54,1.8,53.2,1,52.3,1H12.5c-1,0-1.7,0.8-1.7,1.7v27.9 M32.4,32.6c-7.5,0-13.6-6.1-13.6-13.6S24.9,5.4,32.4,5.4
			S46,11.5,46,19C46,26.6,39.9,32.6,32.4,32.6z"/>
	</g>
</g>
</svg>
