<?xml version="1.0" encoding="utf-8"?>
<!-- Generator: Adobe Illustrator 22.0.1, SVG Export Plug-In . SVG Version: 6.00 Build 0)  -->
<svg version="1.1" id="Слой_1" xmlns="http://www.w3.org/2000/svg" xmlns:xlink="http://www.w3.org/1999/xlink" x="0px" y="0px"
	 viewBox="0 0 100 100" style="enable-background:new 0 0 100 100;" xml:space="preserve">
<circle style="fill:#A1E1F7;" cx="50" cy="50" r="50"/>
<g>
	<path style="fill:none;stroke:#FFFFFF;stroke-width:2;stroke-linecap:round;stroke-linejoin:round;stroke-miterlimit:10;" d="
		M28.253,60.087v-3.343c0-1.524,0.177-3.049,0.526-4.532l3.037-12.909h6.947l6.64,6.935c0.559,0.584,0.868,1.351,0.868,2.16v19.068
		c0,1.043-0.849,1.892-1.892,1.892h-3.374H30.144c-1.043,0-1.892-0.849-1.892-1.892v-3.017 M32.025,39.264v-6.607
		c0-0.657,0.535-1.192,1.192-1.192h3.777c0.657,0,1.192,0.535,1.192,1.192v6.607 M46.31,56.299L46.31,56.299
		c0.841-1.055,2.095-1.659,3.443-1.659c2.427,0,4.401,1.974,4.401,4.401s-1.974,4.401-4.401,4.401c-1.326,0-2.569-0.59-3.41-1.618
		c-0.011-0.013-0.022-0.024-0.033-0.037 M38.187,37.301l3.517-6.659h21.728l-2.497,6.659H38.467 M63.556,30.642v38.715h-7.921
		h-7.841l-3.214,0 M66.62,37.301l-3.172-6.659h5.127l3.172,6.659H66.62z"/>
	<path style="fill:none;stroke:#FFFFFF;stroke-width:2;stroke-linecap:round;stroke-linejoin:round;stroke-miterlimit:10;" d="
		M57.29,50.692c0-0.845,0.687-1.532,1.532-1.532c0.845,0,1.532,0.687,1.532,1.532c0,0.845-0.687,1.532-1.532,1.532
		C57.978,52.224,57.29,51.537,57.29,50.692z"/>
	
		<circle style="fill:none;stroke:#FFFFFF;stroke-width:2;stroke-linecap:round;stroke-linejoin:round;stroke-miterlimit:10;" cx="53.43" cy="48.214" r="1.28"/>
	<path style="fill:none;stroke:#FFFFFF;stroke-width:2;stroke-linecap:round;stroke-linejoin:round;stroke-miterlimit:10;" d="
		M39.698,50.325l0-4.687"/>
	
		<polyline style="fill:none;stroke:#FFFFFF;stroke-width:2;stroke-linecap:round;stroke-linejoin:round;stroke-miterlimit:10;" points="
		63.556,69.358 68.28,65.48 68.28,40.883 	"/>
</g>
</svg>
