<?xml version="1.0" encoding="utf-8"?>
<!-- Generator: Adobe Illustrator 22.0.1, SVG Export Plug-In . SVG Version: 6.00 Build 0)  -->
<svg version="1.1" id="Слой_1" xmlns="http://www.w3.org/2000/svg" xmlns:xlink="http://www.w3.org/1999/xlink" x="0px" y="0px"
	 viewBox="0 0 100 100" style="enable-background:new 0 0 100 100;" xml:space="preserve">
<circle style="fill:#A1E1F7;" cx="50" cy="50" r="50"/>
<g transform="translate(0,-270.54165)">
	<path style="fill:none;stroke:#FFFFFF;stroke-width:2;stroke-linecap:round;stroke-linejoin:round;stroke-miterlimit:10;" d="
		M71.414,332.633H49.9v-11.755c-0.01-0.613,0.226-1.204,0.656-1.641c0.421-0.422,0.995-0.656,1.591-0.651h19.388
		c1.225-0.017,2.233,0.962,2.252,2.187v8.679 M25.899,329.349v-8.572c0.019-1.225,1.026-2.203,2.25-2.187h19.494
		c1.227-0.019,2.237,0.96,2.257,2.187v11.855H28.588 M28.419,342.949h-5.78v-10.706c0.054-1.596,1.392-2.846,2.988-2.792
		c1.52,0.052,2.74,1.272,2.792,2.792V342.949z M71.414,340.615l-42.827-0.01 M28.586,336.413H49.9l0,0h21.513 M77.361,342.949h-5.78
		v-10.706c0.07-2.042,1.377-2.847,2.989-2.792c1.52,0.052,2.74,1.272,2.792,2.792V342.949z"/>
	<path style="fill:none;stroke:#FFFFFF;stroke-width:2;stroke-linecap:round;stroke-linejoin:round;stroke-miterlimit:10;" d="
		M60.411,293.534c-2.065,1.425-3.202,3.381-3.202,5.507s1.137,4.081,3.202,5.507c1.326,0.915,2.056,2.095,2.056,3.321
		s-0.73,2.406-2.056,3.321 M41.453,293.535c-2.065,1.425-3.202,3.381-3.202,5.507s1.137,4.081,3.202,5.507
		c1.326,0.915,2.056,2.095,2.056,3.321s-0.73,2.406-2.056,3.321 M50.932,293.534c-2.065,1.425-3.202,3.381-3.202,5.507
		s1.137,4.081,3.202,5.507c1.326,0.915,2.056,2.095,2.056,3.321s-0.73,2.406-2.056,3.321"/>
</g>
</svg>
