<?xml version="1.0" encoding="utf-8"?>
<!-- Generator: Adobe Illustrator 22.0.1, SVG Export Plug-In . SVG Version: 6.00 Build 0)  -->
<svg version="1.1" id="Слой_1" xmlns="http://www.w3.org/2000/svg" xmlns:xlink="http://www.w3.org/1999/xlink" x="0px" y="0px"
	 viewBox="0 0 100 100" style="enable-background:new 0 0 100 100;" xml:space="preserve">
<circle style="fill:#A1E1F7;" cx="50" cy="50" r="50"/>
<g>
	<path style="fill:none;stroke:#FFFFFF;stroke-width:2;stroke-linecap:round;stroke-linejoin:round;stroke-miterlimit:10;" d="
		M64.55,26.914h4.443l2.619,2.773v3.2l-2.619,2.619h-5.052c-0.203,0-0.399,0.081-0.542,0.225l-2.88,5.145 M29.731,47.012
		l5.819,5.819 M51.668,32.887L35.784,48.771c-0.113,0.113-0.188,0.259-0.214,0.417l-0.522,3.132 M30.252,47.524l3.133-0.522
		c0.157-0.026,0.303-0.101,0.416-0.214l15.884-15.884 M51.668,32.887l-1.984-1.984l5.052-5.052l1.984,1.984L51.668,32.887z
		 M54.742,25.842h9.775v1.996h-7.856 M50.901,54.726l0.038-4.573 M70.807,50.153l0.038,4.573 M50.901,67.521v-9.77 M70.845,57.669
		V64.9 M64.709,57.756H50.901v-3.073h13.807V57.756z M64.343,54.683h6.502v3.068h-6.502 M53.202,70.024
		c-1.271,0-2.301-1.03-2.301-2.301s1.03-2.301,2.301-2.301s2.301,1.03,2.301,2.301S54.473,70.024,53.202,70.024L53.202,70.024z
		 M50.93,62.354h19.886 M65.549,66.189H54.943 M68.544,70.024c-1.695,0-3.068-1.374-3.068-3.068c0-1.695,1.374-3.068,3.068-3.068
		c1.695,0,3.068,1.374,3.068,3.068C71.612,68.651,70.239,70.024,68.544,70.024z M70.803,50.08h-19.86
		c0.395-3.492,3.347-6.132,6.862-6.137h6.137C67.456,43.948,70.408,46.588,70.803,50.08z M56.271,44.095v-3.22h9.205v3.22"/>
	<path style="fill:none;stroke:#FFFFFF;stroke-width:2;stroke-linecap:round;stroke-linejoin:round;stroke-miterlimit:10;" d="
		M30.19,56.984c0-1.271-1.03-2.301-2.301-2.301c-1.271,0-2.301,1.03-2.301,2.301s1.03,2.301,2.301,2.301
		C29.16,59.285,30.19,58.255,30.19,56.984z"/>
	<path style="fill:none;stroke:#FFFFFF;stroke-width:2;stroke-linecap:round;stroke-linejoin:round;stroke-miterlimit:10;" d="
		M28.656,65.422c-1.695,0-3.068,1.374-3.068,3.068c0,1.695,1.374,3.068,3.068,3.068s3.068-1.374,3.068-3.068
		C31.724,66.796,30.351,65.422,28.656,65.422z"/>
	<path style="fill:none;stroke:#FFFFFF;stroke-width:2;stroke-linecap:round;stroke-linejoin:round;stroke-miterlimit:10;" d="
		M39.395,61.586c-1.271,0-2.301,1.03-2.301,2.301s1.03,2.301,2.301,2.301c1.271,0,2.301-1.03,2.301-2.301
		S40.666,61.586,39.395,61.586z"/>
</g>
</svg>
