<?xml version="1.0" encoding="utf-8"?>
<!-- Generator: Adobe Illustrator 22.0.1, SVG Export Plug-In . SVG Version: 6.00 Build 0)  -->
<svg version="1.1" id="Слой_1" xmlns="http://www.w3.org/2000/svg" xmlns:xlink="http://www.w3.org/1999/xlink" x="0px" y="0px"
	 viewBox="0 0 100 100" style="enable-background:new 0 0 100 100;" xml:space="preserve">
<circle style="fill:#A1E1F7;" cx="50" cy="50" r="50"/>
<g>
	<path style="fill:#FFFFFF;" d="M60.489,62.64l-8.041-5.777c-0.986-0.708-2.332-0.666-3.346,0.166l-0.609,0.612
		c-0.487,0.402-1.193,0.369-1.643-0.074c-1.251-1.236-2.438-2.541-3.531-3.881c-1.101-1.344-2.144-2.768-3.099-4.23
		c-0.19-0.292-0.232-0.631-0.16-0.946c1.73,3.816,5.601,6.55,9.979,6.55c5.932,0,10.943-5.011,10.943-10.943
		c0-6.034-4.909-10.943-10.943-10.943c-4.259,0-8.033,2.59-9.828,6.243l-2.351-4.509c-0.601-1.32-2.124-1.925-3.464-1.383
		c-0.259,0.103-0.497,0.244-0.696,0.412l-2.792,2.28c-1.95,1.598-2.305,4.833-1,9.11c1.28,4.151,3.923,8.81,7.444,13.118
		c3.548,4.342,7.584,7.863,11.339,9.899c1.614,0.94,3.372,1.552,5.198,1.812c0.28,0.047,0.563,0.07,0.847,0.07
		c1.097,0,2.188-0.353,3.112-1.031l2.795-2.287c0.174-0.146,0.331-0.313,0.475-0.51c0.418-0.586,0.582-1.301,0.463-2.011
		C61.461,63.675,61.072,63.055,60.489,62.64z M50.04,35.173c4.932,0,8.943,4.012,8.943,8.943c0,4.848-4.096,8.943-8.943,8.943
		s-8.943-4.095-8.943-8.943S45.192,35.173,50.04,35.173z M59.497,65.226c-0.04,0.055-0.085,0.103-0.128,0.139l-2.746,2.249
		c-0.685,0.503-1.557,0.715-2.427,0.564c-1.594-0.227-3.107-0.753-4.524-1.578c-3.559-1.931-7.384-5.276-10.771-9.422
		c-3.361-4.113-5.876-8.532-7.081-12.439c-1.022-3.349-0.889-5.958,0.354-6.976l2.801-2.287c0.045-0.038,0.1-0.07,0.168-0.097
		c0.349-0.14,0.743,0.016,0.921,0.404l3.248,6.233c-0.139,0.682-0.215,1.384-0.215,2.1s0.076,1.417,0.215,2.098
		c-0.025,0.016-0.054,0.021-0.078,0.04c-1.306,1.044-1.603,2.89-0.688,4.293c0.994,1.523,2.08,3.006,3.226,4.404
		c1.136,1.393,2.372,2.751,3.674,4.039c1.182,1.165,3.04,1.249,4.389,0.131l0.605-0.609c0.243-0.196,0.589-0.207,0.842-0.026
		l8.046,5.781c0.15,0.107,0.251,0.267,0.281,0.449C59.639,64.901,59.597,65.085,59.497,65.226z"/>
	<path style="fill:#FFFFFF;" d="M49.451,45.023l4.726,3.445c0.178,0.129,0.384,0.192,0.588,0.192c0.309,0,0.613-0.143,0.809-0.411
		c0.326-0.446,0.228-1.072-0.219-1.397l-4.314-3.146v-4.808c0-0.552-0.447-1-1-1s-1,0.448-1,1v5.316
		C49.04,44.534,49.192,44.834,49.451,45.023z"/>
	<path style="fill:#FFFFFF;" d="M71.973,47.23h-9.216c-0.553,0-1,0.448-1,1s0.447,1,1,1h9.216c0.553,0,1-0.448,1-1
		S72.526,47.23,71.973,47.23z"/>
	<path style="fill:#FFFFFF;" d="M77.066,42.137H64.212c-0.553,0-1,0.448-1,1s0.447,1,1,1h12.854c0.553,0,1-0.448,1-1
		S77.619,42.137,77.066,42.137z"/>
	<path style="fill:#FFFFFF;" d="M62.757,39.044h6.306c0.553,0,1-0.448,1-1s-0.447-1-1-1h-6.306c-0.553,0-1,0.448-1,1
		S62.205,39.044,62.757,39.044z"/>
</g>
</svg>
