<?xml version="1.0" encoding="utf-8"?>
<!-- Generator: Adobe Illustrator 22.0.1, SVG Export Plug-In . SVG Version: 6.00 Build 0)  -->
<svg version="1.1" id="Слой_1" xmlns="http://www.w3.org/2000/svg" xmlns:xlink="http://www.w3.org/1999/xlink" x="0px" y="0px"
	 viewBox="0 0 71.87 75.937" style="enable-background:new 0 0 71.87 75.937;" xml:space="preserve">
<polygon style="fill:none;stroke:#A1E1F7;stroke-width:2;stroke-linecap:round;stroke-linejoin:round;stroke-miterlimit:10;" points="
	59.169,57.513 12.704,57.513 12.704,39.259 3.577,39.259 3.577,66.64 6.896,66.64 6.896,74.937 11.875,74.937 15.066,66.64 
	56.807,66.64 59.998,74.937 64.977,74.937 64.977,66.64 68.296,66.64 68.296,39.259 59.169,39.259 "/>
<line style="fill:none;stroke:#A1E1F7;stroke-width:2;stroke-linecap:round;stroke-linejoin:round;stroke-miterlimit:10;" x1="12.699" y1="50.045" x2="59.175" y2="50.045"/>
<path style="fill:none;stroke:#A1E1F7;stroke-width:2;stroke-linecap:round;stroke-linejoin:round;stroke-miterlimit:10;" d="
	M27.639,13.446c2.749,0,4.978-2.229,4.978-4.978s-2.229-4.978-4.978-4.978s-4.978,2.229-4.978,4.978
	C22.662,11.216,24.89,13.446,27.639,13.446z"/>
<path style="fill:none;stroke:#A1E1F7;stroke-width:2;stroke-linecap:round;stroke-linejoin:round;stroke-miterlimit:10;" d="
	M13.534,9.297c2.291,0,4.148-1.857,4.148-4.148S15.825,1,13.534,1S9.386,2.857,9.386,5.148S11.243,9.297,13.534,9.297z"/>
<path style="fill:none;stroke:#A1E1F7;stroke-width:2;stroke-linecap:round;stroke-linejoin:round;stroke-miterlimit:10;" d="
	M33.636,21.834H22.2 M3.936,36.769c-0.151-0.311-0.279-0.636-0.353-0.99c-0.328-1.565,0.265-3.096,1.393-4.077
	c-1.875-0.284-3.466-1.697-3.876-3.663c-0.526-2.532,1.098-5.014,3.628-5.541C5.048,22.433,5.368,22.4,5.683,22.4
	c0.608,0,1.2,0.12,1.746,0.341c0.45-3.1,2.774-5.731,6.01-6.405c0.526-0.11,1.053-0.162,1.57-0.163c3.406,0,6.466,2.287,7.377,5.66
	h-7.192c-4.563,0-8.298,3.734-8.298,8.298v9.133 M29.4,36.77l-1.76,1.76l-1.796-1.796l-1.796,1.796l-1.76-1.76l1.796-1.796
	l-1.796-1.796l1.76-1.76l1.796,1.796l1.796-1.796l1.76,1.76l-1.796,1.796L29.4,36.77z M49.585,36.77l-1.76,1.76l-1.796-1.796
	l-1.796,1.796l-1.76-1.76l1.796-1.796l-1.796-1.796l1.76-1.76l1.796,1.796l1.796-1.796l1.76,1.76l-1.796,1.796L49.585,36.77z
	 M67.857,33.381c-0.902,0.564-1.889,0.864-2.88,0.945v-4.194c0-4.563-3.733-8.298-8.298-8.298H33.57
	c0.464-3.249,2.298-6.28,5.3-8.159c1.899-1.188,4.009-1.754,6.095-1.754c2.558,0,5.08,0.851,7.131,2.448
	c0.551-1.232,1.459-2.315,2.687-3.085c1.163-0.728,2.456-1.075,3.735-1.075c2.353,0,4.654,1.176,5.995,3.315
	c1.608,2.568,1.351,5.767-0.393,8.036c0.11-0.006,0.22-0.008,0.329-0.008c2.137,0,4.227,1.04,5.443,2.986
	C71.772,27.544,70.858,31.501,67.857,33.381z"/>
<line style="fill:none;stroke:#A1E1F7;stroke-width:2;stroke-linecap:round;stroke-linejoin:round;stroke-miterlimit:10;" x1="64.978" y1="34.226" x2="64.978" y2="39.263"/>
</svg>
