<?xml version="1.0" encoding="utf-8"?>
<!-- Generator: Adobe Illustrator 22.0.1, SVG Export Plug-In . SVG Version: 6.00 Build 0)  -->
<svg version="1.1" id="Слой_1" xmlns="http://www.w3.org/2000/svg" xmlns:xlink="http://www.w3.org/1999/xlink" x="0px" y="0px"
	 viewBox="0 0 36 36" style="enable-background:new 0 0 36 36;" xml:space="preserve">
<g>
	<circle style="fill:#A1E1F7;" cx="18" cy="18" r="18"/>
</g>
<g>
	<path style="fill:#FFFFFF;" d="M25.84,14.766c0.023,0.633,0.035,1.711,0.035,3.234c0,1.524-0.012,2.602-0.035,3.234
		c-0.07,1.43-0.498,2.537-1.283,3.322s-1.893,1.201-3.322,1.248c-0.633,0.047-1.71,0.07-3.234,0.07c-1.524,0-2.602-0.023-3.234-0.07
		c-1.43-0.07-2.531-0.492-3.305-1.266c-0.305-0.281-0.551-0.609-0.738-0.984c-0.188-0.375-0.322-0.738-0.404-1.09
		c-0.083-0.352-0.123-0.761-0.123-1.23c-0.047-0.633-0.07-1.71-0.07-3.234c0-1.523,0.023-2.613,0.07-3.27
		c0.07-1.406,0.492-2.496,1.266-3.27c0.773-0.796,1.875-1.23,3.305-1.301c0.633-0.023,1.71-0.035,3.234-0.035
		c1.523,0,2.601,0.012,3.234,0.035c1.43,0.07,2.537,0.498,3.322,1.283C25.342,12.229,25.769,13.336,25.84,14.766z M24.152,22.641
		c0.07-0.188,0.129-0.427,0.176-0.721c0.047-0.293,0.082-0.645,0.105-1.055c0.023-0.41,0.035-0.744,0.035-1.002
		c0-0.258,0-0.621,0-1.09s0-0.732,0-0.791c0-0.058,0-0.316,0-0.773s0-0.814,0-1.072c0-0.258-0.012-0.592-0.035-1.002
		s-0.059-0.761-0.105-1.055c-0.047-0.293-0.105-0.533-0.176-0.721c-0.281-0.726-0.785-1.23-1.512-1.512
		c-0.188-0.07-0.428-0.128-0.721-0.176c-0.293-0.047-0.645-0.082-1.055-0.105s-0.738-0.035-0.984-0.035s-0.61,0-1.09,0
		s-0.744,0-0.791,0s-0.305,0-0.773,0c-0.469,0-0.832,0-1.09,0c-0.258,0-0.592,0.012-1.002,0.035s-0.762,0.059-1.055,0.105
		c-0.293,0.047-0.533,0.105-0.721,0.176c-0.727,0.281-1.23,0.786-1.512,1.512c-0.07,0.188-0.129,0.428-0.176,0.721
		c-0.047,0.293-0.083,0.645-0.105,1.055c-0.023,0.41-0.035,0.738-0.035,0.984s0,0.61,0,1.09s0,0.744,0,0.791c0,0.094,0,0.311,0,0.65
		c0,0.34,0,0.621,0,0.844s0.005,0.51,0.018,0.861c0.012,0.352,0.029,0.65,0.053,0.896c0.023,0.246,0.058,0.498,0.105,0.756
		c0.047,0.258,0.093,0.469,0.141,0.633c0.304,0.727,0.809,1.23,1.512,1.512c0.188,0.07,0.427,0.129,0.721,0.176
		c0.293,0.047,0.645,0.083,1.055,0.105c0.41,0.023,0.738,0.035,0.984,0.035c0.246,0,0.609,0,1.09,0c0.48,0,0.744,0,0.791,0
		c0.07,0,0.334,0,0.791,0s0.814,0,1.072,0c0.258,0,0.591-0.012,1.001-0.035s0.762-0.058,1.055-0.105
		c0.293-0.047,0.533-0.105,0.721-0.176C23.367,23.848,23.871,23.344,24.152,22.641z M15.135,15.135
		c0.785-0.785,1.74-1.178,2.865-1.178s2.08,0.393,2.865,1.178c0.785,0.786,1.178,1.74,1.178,2.865s-0.393,2.08-1.178,2.865
		c-0.785,0.786-1.74,1.178-2.865,1.178s-2.08-0.392-2.865-1.178c-0.786-0.785-1.178-1.74-1.178-2.865S14.349,15.92,15.135,15.135z
		 M16.137,19.863c0.515,0.516,1.137,0.773,1.863,0.773c0.726,0,1.348-0.258,1.863-0.773c0.515-0.515,0.773-1.137,0.773-1.863
		c0-0.726-0.258-1.348-0.773-1.863c-0.516-0.515-1.137-0.773-1.863-0.773c-0.727,0-1.348,0.258-1.863,0.773
		c-0.516,0.516-0.773,1.137-0.773,1.863C15.364,18.727,15.621,19.348,16.137,19.863z M22.869,13.131
		c0.176,0.176,0.264,0.393,0.264,0.65c0,0.258-0.088,0.48-0.264,0.668c-0.176,0.188-0.393,0.281-0.65,0.281s-0.48-0.093-0.668-0.281
		s-0.281-0.41-0.281-0.668s0.094-0.475,0.281-0.65s0.41-0.264,0.668-0.264S22.693,12.955,22.869,13.131z"/>
</g>
</svg>
