<?xml version="1.0" encoding="utf-8"?>
<!-- Generator: Adobe Illustrator 22.0.1, SVG Export Plug-In . SVG Version: 6.00 Build 0)  -->
<svg version="1.1" id="Слой_1" xmlns="http://www.w3.org/2000/svg" xmlns:xlink="http://www.w3.org/1999/xlink" x="0px" y="0px"
	 viewBox="0 0 24.497 24.515" style="enable-background:new 0 0 24.497 24.515;" xml:space="preserve">
<title>instagram</title>
<path style="fill:none;stroke:#1B1D1E;stroke-width:1.3;" d="M23.793,7.457c0,0.971,0.054,2.568,0.054,4.81s0,3.857-0.082,4.846
	c-0.03,0.869-0.177,1.729-0.436,2.559c-0.612,1.714-1.961,3.063-3.676,3.676c-0.83,0.259-1.691,0.405-2.559,0.436
	c-0.989,0.054-2.596,0.082-4.846,0.082s-3.884-0.073-4.846-0.073c-0.874-0.025-1.738-0.191-2.559-0.49
	c-0.851-0.266-1.624-0.736-2.251-1.37c-0.637-0.635-1.124-1.404-1.425-2.251c-0.263-0.829-0.41-1.69-0.436-2.559
	C0.677,16.097,0.65,14.49,0.65,12.239s0.027-3.875,0.082-4.837c0.026-0.869,0.173-1.73,0.436-2.559
	c0.624-1.697,1.971-3.028,3.676-3.63c0.827-0.278,1.688-0.44,2.559-0.481C8.364,0.677,9.998,0.65,12.239,0.65s3.857,0,4.846,0.082
	c0.869,0.026,1.73,0.173,2.559,0.436c1.714,0.612,3.063,1.961,3.676,3.676C23.587,5.691,23.746,6.569,23.793,7.457z M11.994,16.596
	c2.396,0,4.338-1.942,4.338-4.338v0c-0.005-2.392-1.946-4.329-4.338-4.329c-1.152-0.02-2.26,0.441-3.058,1.271
	c-0.832,0.798-1.296,1.906-1.28,3.058c-0.019,1.156,0.445,2.267,1.28,3.068C9.737,16.151,10.844,16.611,11.994,16.596z
	 M19.854,6.032c0.006-0.371-0.145-0.728-0.417-0.98c-0.253-0.272-0.609-0.424-0.98-0.417c-0.77,0.005-1.393,0.628-1.398,1.398
	c-0.01,0.777,0.612,1.415,1.388,1.425c0.003,0,0.006,0,0.009,0c0.364,0.009,0.713-0.144,0.953-0.417
	C19.673,6.768,19.831,6.41,19.854,6.032z"/>
</svg>
