<?xml version="1.0" encoding="utf-8"?>
<!-- Generator: Adobe Illustrator 22.0.1, SVG Export Plug-In . SVG Version: 6.00 Build 0)  -->
<svg version="1.1" id="Слой_1" xmlns="http://www.w3.org/2000/svg" xmlns:xlink="http://www.w3.org/1999/xlink" x="0px" y="0px"
	 viewBox="0 0 191.2 59.356" style="enable-background:new 0 0 191.2 59.356;" xml:space="preserve">
<title>Asset 2</title>
<g id="Layer_2">
	<g id="Layer_1-2">
		<polygon style="fill:#A1E1F7;" points="58.55,27.09 58.55,43.12 48.18,43.12 48.18,0 48.91,0 52.51,10.12 58.15,25.97 		"/>
		<path style="fill:#FFFFFF;" d="M44,37l-1-2.93L40,26l-2-5.58l-0.35-1l-5.52-15.7L30.8,0H15.34L0,43.12h12.08l2.84-9.06H31l1,3.24
			l0,0l1.85,5.79h12.29L44,37z M17.52,26l5.25-16.58H23l3.36,10.47l2,6.08L17.52,26z"/>
		<path style="fill:#FFFFFF;" d="M99.29,38.77c-2.324,3.361-6.206,5.301-10.29,5.14c-3.02,0.146-5.971-0.936-8.18-3
			c-2-2-3-4.97-3-8.91V11h10.72v18.53c0,2.1,0.41,3.6,1.24,4.5c0.961,0.963,2.293,1.46,3.65,1.36c1.528,0.015,2.988-0.635,4-1.78
			c1.186-1.497,1.768-3.385,1.63-5.29V11.05h10.75v32.07H99.53v-4.35H99.29z"/>
		<path style="fill:#FFFFFF;" d="M123.38,16.07h0.24c2-3.873,5.283-5.807,9.85-5.8c0.552,0.005,1.1,0.085,1.63,0.24v9.9
			c-1.182-0.175-2.376-0.255-3.57-0.24c-2.025-0.12-4.026,0.49-5.64,1.72c-1.333,1.147-2,3.13-2,5.95v15.28h-10.77V11.05h10.26
			L123.38,16.07z"/>
		<path style="fill:#FFFFFF;" d="M156.53,38.47c-0.814,1.75-2.21,3.164-3.95,4c-1.996,0.992-4.201,1.489-6.43,1.45
			c-1.816,0.005-3.612-0.388-5.26-1.15c-1.598-0.714-2.978-1.839-4-3.26c-1.024-1.463-1.553-3.215-1.51-5c0-3.27,1.07-5.7,3.2-7.31
			s5.37-2.7,9.72-3.26c1.705-0.226,3.397-0.54,5.07-0.94c0.877-0.16,1.711-0.501,2.45-1c0.459-0.376,0.715-0.947,0.69-1.54
			c0.04-0.924-0.403-1.803-1.17-2.32c-0.989-0.598-2.136-0.884-3.29-0.82c-1.219-0.02-2.411,0.364-3.39,1.09
			c-0.998,0.778-1.717,1.859-2.05,3.08l-10-1c0.629-3.12,2.532-5.835,5.25-7.49c3.129-1.886,6.739-2.821,10.39-2.69
			c4.947,0,8.69,0.957,11.23,2.87c2.536,1.908,3.96,4.95,3.8,8.12v15.84c-0.018,1.302,0.032,2.604,0.15,3.9
			c0.061,0.74,0.301,1.454,0.7,2.08h-10.69C156.84,42.4,156.53,40.85,156.53,38.47z M154.36,28.78c-1,0.22-2.11,0.43-3.32,0.63
			c-3.14,0.607-4.71,2.017-4.71,4.23c-0.049,0.972,0.34,1.915,1.06,2.57c0.785,0.648,1.783,0.98,2.8,0.93
			c1.003-0.007,1.993-0.232,2.9-0.66c2.201-1.011,3.563-3.261,3.44-5.68V28C155.857,28.382,155.123,28.646,154.36,28.78z"/>
		<path style="fill:#FFFFFF;" d="M191.08,35.21v7.91c-0.65,0.08-2.82,0.12-6.53,0.12c-2.066,0.067-4.131-0.166-6.13-0.69
			c-1.374-0.4-2.541-1.313-3.26-2.55c-0.778-1.657-1.122-3.484-1-5.31v-17h-4.89v-6.64h4.89V2.24h10.64v8.81h6.4v6.71h-6.4v14.43
			c0,1.29,0.27,2.11,0.81,2.48c0.972,0.448,2.044,0.634,3.11,0.54H191.08z"/>
		<polygon style="fill:#FFFFFF;" points="72.37,35.45 75.1,43.13 64.25,43.13 61.05,34.13 60.38,32.24 58.55,27.09 60.38,21.93 
			61.05,20.05 61.05,20.05 64.25,11.05 75.1,11.05 72.37,18.73 72.37,18.73 69.4,27.09 		"/>
		<polygon style="fill:#FFFFFF;" points="58.55,0 58.55,27.09 58.15,25.97 52.51,10.12 48.91,0 		"/>
		<path style="fill:#FFFFFF;" d="M64.81,45l-0.22-0.64l-16.05,5.77l0.23,0.63c0.493,1.395,2.024,2.127,3.42,1.634
			c0.003-0.001,0.007-0.002,0.01-0.004l3.8-1.34c0.311,0.579,0.934,0.92,1.59,0.87L60.08,59c0.152,0.313,0.528,0.444,0.842,0.292
			c0.266-0.129,0.407-0.425,0.338-0.712l-2.53-7.08c0.567-0.369,0.848-1.048,0.71-1.71l3.75-1.34
			c1.395-0.495,2.125-2.027,1.63-3.422C64.817,45.019,64.813,45.009,64.81,45z"/>
		<polygon style="fill:#A1E1F7;" points="35.71,1.58 36.26,0.58 36.81,1.58 37.81,2.13 36.81,2.67 36.26,3.68 35.71,2.67 
			34.71,2.13 		"/>
		<polygon style="fill:#A1E1F7;" points="42.51,18.32 43.4,16.7 44.29,18.32 45.91,19.21 44.29,20.1 43.4,21.73 42.51,20.1 
			40.89,19.21 		"/>
		<polygon style="fill:#A1E1F7;" points="40.63,6.54 42.07,3.91 43.51,6.54 46.14,7.98 43.51,9.42 42.07,12.05 40.63,9.42 38,7.98 
					"/>
	</g>
</g>
</svg>
