<?xml version="1.0" encoding="utf-8"?>
<!-- Generator: Adobe Illustrator 22.0.1, SVG Export Plug-In . SVG Version: 6.00 Build 0)  -->
<svg version="1.1" id="Слой_1" xmlns="http://www.w3.org/2000/svg" xmlns:xlink="http://www.w3.org/1999/xlink" x="0px" y="0px"
	 viewBox="0 0 100 100" style="enable-background:new 0 0 100 100;" xml:space="preserve">
<circle style="fill:#A1E1F7;" cx="50" cy="50" r="50"/>
<path style="fill:none;stroke:#FFFFFF;stroke-width:2;stroke-linecap:round;stroke-linejoin:round;stroke-miterlimit:10;" d="
	M54.546,33.69l3.664-7.425h12.159l-9.744,19.727 M36.452,64.61c-0.73-1.773-1.102-3.664-1.102-5.597
	c0-8.107,6.617-14.719,14.722-14.719s14.722,6.612,14.722,14.719s-6.615,14.722-14.722,14.722c-2.707,0-5.352-0.741-7.653-2.145
	 M39.418,46.076l-9.003-18.23l-0.784-1.578H41.79l8.027,16.253"/>
<polygon style="fill:none;stroke:#FFFFFF;stroke-width:2;stroke-linecap:round;stroke-linejoin:round;stroke-miterlimit:10;" points="
	49.958,51.162 52.133,55.568 56.996,56.275 53.477,59.705 54.308,64.549 49.958,62.262 45.609,64.549 46.439,59.705 42.921,56.275 
	47.784,55.568 "/>
</svg>
