<?xml version="1.0" encoding="utf-8"?>
<!-- Generator: Adobe Illustrator 22.0.1, SVG Export Plug-In . SVG Version: 6.00 Build 0)  -->
<svg version="1.1" id="Слой_1" xmlns="http://www.w3.org/2000/svg" xmlns:xlink="http://www.w3.org/1999/xlink" x="0px" y="0px"
	 viewBox="0 0 100 100" style="enable-background:new 0 0 100 100;" xml:space="preserve">
<circle style="fill:#A1E1F7;" cx="50" cy="50" r="50"/>
<g transform="translate(0,-270.54165)">
	<path style="fill:none;stroke:#FFFFFF;stroke-width:2;stroke-linecap:round;stroke-linejoin:round;" d="M49.232,336.673
		c3.003-0.551,5.796-2.182,7.751-4.528c1.955-2.345,3.056-5.387,3.056-8.44s-1.101-6.095-3.056-8.44
		c-1.955-2.345-4.748-3.977-7.751-4.528"/>
	<path style="fill:none;stroke:#FFFFFF;stroke-width:2;stroke-linecap:round;stroke-linejoin:round;" d="M49.232,336.673
		c-3.003-0.551-5.796-2.182-7.751-4.528c-1.955-2.345-3.056-5.387-3.056-8.44s1.101-6.095,3.056-8.44
		c1.955-2.345,4.748-3.977,7.751-4.528"/>
	<path style="fill:none;stroke:#FFFFFF;stroke-width:2;stroke-linecap:round;stroke-linejoin:round;" d="M55.715,313.763
		l2.161-2.161"/>
	<path style="fill:none;stroke:#FFFFFF;stroke-width:2;stroke-linecap:round;stroke-linejoin:round;" d="M60.038,323.705h3.026"/>
	<path style="fill:none;stroke:#FFFFFF;stroke-width:2;stroke-linecap:round;stroke-linejoin:round;" d="M39.29,334.511l2.161-2.161
		"/>
	<path style="fill:none;stroke:#FFFFFF;stroke-width:2;stroke-linecap:round;stroke-linejoin:round;" d="M42.748,313.763
		l-2.161-2.161"/>
	<path style="fill:none;stroke:#FFFFFF;stroke-width:2;stroke-linecap:round;stroke-linejoin:round;" d="M35.399,323.705h3.026"/>
	<path style="fill:none;stroke:#FFFFFF;stroke-width:2;stroke-linecap:round;stroke-linejoin:round;" d="M59.173,334.511
		l-2.161-2.161"/>
	<path style="fill:none;stroke:#FFFFFF;stroke-width:2;stroke-linecap:round;stroke-linejoin:round;" d="M44.909,310.305
		c-0.115-1.2,0.299-2.441,1.11-3.333s2.007-1.421,3.213-1.421s2.402,0.529,3.213,1.421s1.224,2.133,1.11,3.333"/>
	<path style="fill:none;stroke:#FFFFFF;stroke-width:2;stroke-linecap:round;stroke-linejoin:round;" d="M51.825,305.551
		l2.161-2.161"/>
	<path style="fill:none;stroke:#FFFFFF;stroke-width:2;stroke-linecap:round;stroke-linejoin:round;" d="M46.638,305.551
		l-2.161-2.161"/>
	<path style="fill:none;stroke:#FFFFFF;stroke-width:2;" d="M49.232,310.738c-4.008,3.006-6.484,7.957-6.484,12.968
		c0,5.01,2.476,9.961,6.484,12.968"/>
	<path style="fill:none;stroke:#FFFFFF;stroke-width:2;" d="M49.232,310.738c4.008,3.006,6.484,7.957,6.484,12.968
		c0,5.01-2.476,9.961-6.484,12.968"/>
	<path style="fill:none;stroke:#FFFFFF;stroke-width:2;" d="M49.232,310.738c-1.3,3.753-2.031,7.702-2.161,11.671
		c-0.158,4.833,0.578,9.695,2.161,14.264"/>
	<path style="fill:none;stroke:#FFFFFF;stroke-width:2;" d="M49.232,310.738c1.528,4.435,2.263,9.142,2.161,13.832
		c-0.089,4.114-0.821,8.213-2.161,12.103"/>
	
		<circle style="fill:none;stroke:#FFFFFF;stroke-width:2;stroke-linecap:round;stroke-linejoin:round;stroke-miterlimit:10;" cx="50" cy="320.542" r="28.913"/>
	
		<line style="fill:none;stroke:#FFFFFF;stroke-width:2;stroke-linecap:round;stroke-linejoin:round;stroke-miterlimit:10;" x1="28.771" y1="340.292" x2="69.692" y2="299.37"/>
</g>
</svg>
