<?xml version="1.0" encoding="utf-8"?>
<!-- Generator: Adobe Illustrator 22.0.1, SVG Export Plug-In . SVG Version: 6.00 Build 0)  -->
<svg version="1.1" id="Слой_1" xmlns="http://www.w3.org/2000/svg" xmlns:xlink="http://www.w3.org/1999/xlink" x="0px" y="0px"
	 viewBox="0 0 36 36" style="enable-background:new 0 0 36 36;" xml:space="preserve">
<circle style="fill:#A1E1F7;" cx="18" cy="18" r="18"/>
<g>
	<path style="fill:#FFFFFF;" d="M14.796,18.648l0.864-7.056h6.228v2.7h-3.852l-0.252,1.602h0.432c1.127,0,2.063,0.372,2.808,1.116
		c0.756,0.732,1.134,1.728,1.134,2.988c0,1.368-0.432,2.448-1.296,3.24c-0.876,0.78-1.974,1.17-3.294,1.17
		c-0.708,0-1.416-0.15-2.124-0.45c-0.708-0.312-1.242-0.726-1.602-1.242l1.512-2.07c0.252,0.3,0.597,0.552,1.035,0.756
		c0.438,0.204,0.855,0.306,1.251,0.306c0.48,0,0.873-0.147,1.179-0.441c0.306-0.294,0.459-0.675,0.459-1.143
		c0-0.54-0.207-0.975-0.621-1.305s-0.981-0.495-1.701-0.495C15.96,18.324,15.24,18.432,14.796,18.648z"/>
</g>
</svg>
