<?xml version="1.0" encoding="utf-8"?>
<!-- Generator: Adobe Illustrator 22.0.1, SVG Export Plug-In . SVG Version: 6.00 Build 0)  -->
<svg version="1.1" id="Слой_1" xmlns="http://www.w3.org/2000/svg" xmlns:xlink="http://www.w3.org/1999/xlink" x="0px" y="0px"
	 viewBox="0 0 36 36" style="enable-background:new 0 0 36 36;" xml:space="preserve">
<circle style="fill:#A1E1F7;" cx="18" cy="18" r="18"/>
<g>
	<path style="fill:#FFFFFF;" d="M22.068,24.372h-8.136v-2.16c0.012-0.012,0.306-0.294,0.882-0.846l0.99-0.99
		c0.216-0.24,0.504-0.54,0.864-0.9c0.408-0.432,0.696-0.774,0.864-1.026l0.594-0.918c0.42-0.636,0.63-1.29,0.63-1.962
		c0-0.828-0.384-1.242-1.152-1.242c-0.348,0-0.624,0.111-0.828,0.333s-0.39,0.561-0.558,1.017l-2.25-1.026
		c0.216-0.948,0.663-1.688,1.341-2.223c0.678-0.534,1.551-0.801,2.619-0.801c1.164,0,2.07,0.331,2.718,0.99
		c0.66,0.66,0.99,1.464,0.99,2.412c0,2.388-1.404,4.662-4.212,6.822h4.644V24.372z"/>
</g>
</svg>
