<?xml version="1.0" encoding="utf-8"?>
<!-- Generator: Adobe Illustrator 22.0.1, SVG Export Plug-In . SVG Version: 6.00 Build 0)  -->
<svg version="1.1" id="Слой_1" xmlns="http://www.w3.org/2000/svg" xmlns:xlink="http://www.w3.org/1999/xlink" x="0px" y="0px"
	 viewBox="0 0 36 36" style="enable-background:new 0 0 36 36;" xml:space="preserve">
<circle style="fill:#A1E1F7;" cx="18" cy="18" r="18"/>
<g>
	<path style="fill:#FFFFFF;" d="M17.937,24.516c-0.96,0-1.8-0.189-2.52-0.567c-0.72-0.378-1.266-0.885-1.638-1.521l1.494-1.998
		c0.816,0.924,1.644,1.386,2.484,1.386c0.504,0,0.894-0.114,1.17-0.342c0.276-0.228,0.414-0.522,0.414-0.882
		c0-0.924-0.714-1.386-2.142-1.386h-0.792v-2.7h0.72c0.516,0,0.933-0.111,1.251-0.333s0.477-0.531,0.477-0.927
		c0-0.312-0.096-0.567-0.288-0.765c-0.192-0.198-0.48-0.297-0.864-0.297c-0.84,0-1.566,0.378-2.178,1.134l-1.476-1.944
		c0.768-1.26,2.07-1.89,3.906-1.89c1.116,0,2.022,0.294,2.718,0.882c0.708,0.576,1.062,1.356,1.062,2.34
		c0,1.404-0.625,2.388-1.872,2.952v0.054c0.744,0.144,1.323,0.483,1.737,1.017c0.414,0.534,0.621,1.191,0.621,1.971
		c0,1.152-0.408,2.082-1.224,2.79C20.193,24.174,19.173,24.516,17.937,24.516z"/>
</g>
</svg>
