<?xml version="1.0" encoding="utf-8"?>
<!-- Generator: Adobe Illustrator 22.0.1, SVG Export Plug-In . SVG Version: 6.00 Build 0)  -->
<svg version="1.1" id="Слой_1" xmlns="http://www.w3.org/2000/svg" xmlns:xlink="http://www.w3.org/1999/xlink" x="0px" y="0px"
	 viewBox="0 0 36 36" style="enable-background:new 0 0 36 36;" xml:space="preserve">
<circle style="fill:#A1E1F7;" cx="18" cy="18" r="18"/>
<g>
	<path style="fill:#FFFFFF;" d="M13.554,19.836c0-1.08,0.191-2.115,0.576-3.105c0.384-0.99,0.894-1.839,1.53-2.547
		c1.32-1.416,2.706-2.315,4.158-2.7l1.098,2.034c-0.96,0.324-1.803,0.801-2.529,1.431c-0.727,0.63-1.269,1.359-1.629,2.187
		c0.492-0.456,1.23-0.684,2.214-0.684c0.936,0,1.746,0.36,2.43,1.08c0.696,0.708,1.044,1.626,1.044,2.754
		c0,1.32-0.426,2.358-1.278,3.114c-0.852,0.744-1.842,1.116-2.97,1.116c-1.38,0-2.502-0.45-3.366-1.35
		C13.98,22.254,13.554,21.144,13.554,19.836z M16.434,19.854c0,0.612,0.156,1.092,0.468,1.44s0.75,0.522,1.314,0.522
		c0.42,0,0.75-0.126,0.99-0.378c0.24-0.252,0.36-0.57,0.36-0.954c0-0.456-0.135-0.822-0.405-1.098
		c-0.27-0.276-0.646-0.414-1.125-0.414C17.376,18.972,16.842,19.266,16.434,19.854z"/>
</g>
</svg>
