<?xml version="1.0" encoding="utf-8"?>
<!-- Generator: Adobe Illustrator 22.0.1, SVG Export Plug-In . SVG Version: 6.00 Build 0)  -->
<svg version="1.1" id="Слой_1" xmlns="http://www.w3.org/2000/svg" xmlns:xlink="http://www.w3.org/1999/xlink" x="0px" y="0px"
	 viewBox="0 0 92.674 72.165" style="enable-background:new 0 0 92.674 72.165;" xml:space="preserve">
<g>
	<path style="fill:none;stroke:#A1E1F7;stroke-width:2;stroke-linecap:round;stroke-linejoin:round;stroke-miterlimit:10;" d="
		M38.907,11.648L78.169,1.131c0.257-0.069,0.496-0.107,0.715-0.123c0.659-0.048,1.154,0.119,1.512,0.381
		c0.478,0.35,0.811,0.899,0.811,1.88v8.378 M21.915,31.969v-16.74c0-1.962,1.529-3.488,3.491-3.488h62.776
		c1.962,0,3.491,1.525,3.491,3.488v12.207c-0.022,0-0.043-0.003-0.065-0.003H69.944c-0.862,0-1.689,0.258-2.357,0.773
		c-0.668,0.516-1.195,1.375-1.195,2.367v11.161c0,0.992,0.528,1.851,1.195,2.367c0.668,0.516,1.495,0.773,2.357,0.773h21.665
		c0.022,0,0.043-0.003,0.065-0.003v12.207c0,1.962-1.529,3.488-3.491,3.488H60.227 M32.381,41.915v-4.881 M91.609,26.923
		c0.041,0,0.034,4.004,0.065,4.011v10.439c-0.03,0.006-0.024,4.011-0.065,4.011 M75.108,33.535c-1.445,0-2.616,1.171-2.616,2.616
		c0,1.445,1.171,2.616,2.616,2.616c1.445,0,2.616-1.171,2.616-2.616C77.723,34.707,76.552,33.535,75.108,33.535z M18.428,35.143
		c9.651,0,17.441,7.79,17.441,17.441c0,9.651-7.79,17.428-17.441,17.428S1,62.235,1,52.584C1,42.933,8.777,35.143,18.428,35.143z
		 M18.428,40.78c6.535,0,11.805,5.269,11.805,11.805s-5.269,11.791-11.805,11.791S6.637,59.12,6.637,52.584
		C6.637,46.049,11.892,40.78,18.428,40.78z"/>
</g>
<g>
	<path style="fill:#A1E1F7;" d="M22.243,54.331h-5.416v0.041c0,0.004,0,0.008,0,0.012s0,0.008,0,0.012
		c0,0.39,0.191,0.691,0.574,0.902c0.312,0.172,0.683,0.258,1.112,0.258c1.023,0,1.901-0.236,2.635-0.708l0.867,1.452
		c-0.433,0.246-0.855,0.418-1.265,0.515c-0.558,0.137-1.298,0.205-2.219,0.205c-0.964,0-1.751-0.187-2.36-0.562
		c-0.718-0.445-1.077-1.107-1.077-1.985c0-0.012,0-0.027,0-0.047v-0.094h-0.468V53.06h0.878c0.375-0.507,1.163-0.923,2.365-1.247
		h-3.244v-1.271H20.1c0.004-0.027,0.006-0.07,0.006-0.129c0-0.304-0.178-0.531-0.533-0.679c-0.262-0.109-0.57-0.164-0.925-0.164
		c-0.82,0-1.579,0.199-2.278,0.597l-0.972-1.189c0.956-0.562,2.034-0.843,3.232-0.843c0.867,0,1.579,0.17,2.137,0.509
		c0.664,0.406,0.995,1.001,0.995,1.786v0.006c0,0.004,0,0.01,0,0.018c0,0.008,0,0.014,0,0.018v0.07h0.48v1.271h-0.995
		c-0.281,0.293-0.703,0.548-1.265,0.767c-0.129,0.051-0.63,0.211-1.505,0.48h3.765V54.331z"/>
</g>
<ellipse style="fill:none;stroke:#A1E1F7;stroke-width:2;stroke-linecap:round;stroke-linejoin:round;stroke-miterlimit:10;" cx="46.182" cy="37.024" rx="13.633" ry="4.162"/>
<path style="fill:none;stroke:#A1E1F7;stroke-width:2;stroke-linecap:round;stroke-linejoin:round;stroke-miterlimit:10;" d="
	M59.814,37.257v29.746c0,2.299-6.104,4.162-13.633,4.162s-13.633-1.864-13.633-4.162v-3.764"/>
<path style="fill:none;stroke:#A1E1F7;stroke-width:2;stroke-linecap:round;stroke-linejoin:round;stroke-miterlimit:10;" d="
	M59.814,61.007c0,2.299-6.104,4.162-13.633,4.162c-5.814,0-10.779-1.111-12.738-2.676"/>
<path style="fill:none;stroke:#A1E1F7;stroke-width:2;stroke-linecap:round;stroke-linejoin:round;stroke-miterlimit:10;" d="
	M59.814,55.011c0,2.299-6.104,4.162-13.633,4.162c-4.197,0-7.952-0.579-10.453-1.49"/>
<path style="fill:none;stroke:#A1E1F7;stroke-width:2;stroke-linecap:round;stroke-linejoin:round;stroke-miterlimit:10;" d="
	M59.814,49.015c0,2.299-6.104,4.162-13.633,4.162c-3.686,0-7.031-0.447-9.485-1.173"/>
<path style="fill:none;stroke:#A1E1F7;stroke-width:2;stroke-linecap:round;stroke-linejoin:round;stroke-miterlimit:10;" d="
	M59.814,43.019c0,2.299-6.104,4.162-13.633,4.162c-4.661,0-8.775-0.714-11.234-1.804"/>
</svg>
