<?xml version="1.0" encoding="utf-8"?>
<!-- Generator: Adobe Illustrator 22.0.1, SVG Export Plug-In . SVG Version: 6.00 Build 0)  -->
<svg version="1.1" id="Слой_1" xmlns="http://www.w3.org/2000/svg" xmlns:xlink="http://www.w3.org/1999/xlink" x="0px" y="0px"
	 viewBox="0 0 100 100" style="enable-background:new 0 0 100 100;" xml:space="preserve">
<circle style="fill:#A1E1F7;" cx="50" cy="50" r="50"/>
<path style="fill:none;stroke:#FFFFFF;stroke-width:2;stroke-linecap:round;stroke-linejoin:round;stroke-miterlimit:10;" d="
	M39.35,36.403c7.661,0,13.846,6.184,13.846,13.846S47.011,64.084,39.35,64.084S25.515,57.91,25.515,50.249
	S31.688,36.403,39.35,36.403z"/>
<path style="fill:none;stroke:#FFFFFF;stroke-width:2;stroke-linecap:round;stroke-linejoin:round;stroke-miterlimit:10;" d="
	M39.35,40.878c5.188,0,9.371,4.183,9.371,9.371c0,5.188-4.183,9.36-9.371,9.36s-9.36-4.172-9.36-9.36
	C29.989,45.061,34.161,40.878,39.35,40.878z"/>
<g>
	<path style="fill:#FFFFFF;" d="M42.379,51.636h-4.299v0.033c0,0.003,0,0.006,0,0.009c0,0.003,0,0.006,0,0.009
		c0,0.31,0.152,0.548,0.456,0.716c0.248,0.136,0.542,0.205,0.883,0.205c0.812,0,1.509-0.187,2.092-0.562l0.688,1.153
		c-0.344,0.195-0.679,0.332-1.004,0.409c-0.443,0.108-1.03,0.163-1.762,0.163c-0.765,0-1.39-0.149-1.873-0.446
		c-0.57-0.353-0.855-0.878-0.855-1.576c0-0.009,0-0.022,0-0.037v-0.074h-0.372v-1.009h0.697c0.297-0.403,0.923-0.733,1.878-0.99
		h-2.575v-1.009h4.346c0.003-0.022,0.005-0.056,0.005-0.102c0-0.242-0.141-0.421-0.423-0.539c-0.208-0.087-0.452-0.13-0.734-0.13
		c-0.651,0-1.253,0.158-1.808,0.474l-0.772-0.944c0.759-0.446,1.614-0.669,2.566-0.669c0.688,0,1.253,0.135,1.697,0.404
		c0.527,0.322,0.79,0.795,0.79,1.418v0.005c0,0.003,0,0.008,0,0.014c0,0.006,0,0.011,0,0.014v0.056h0.381v1.009h-0.79
		c-0.223,0.232-0.558,0.435-1.004,0.609c-0.102,0.04-0.5,0.167-1.195,0.381h2.989V51.636z"/>
</g>
<ellipse style="fill:none;stroke:#FFFFFF;stroke-width:2;stroke-linecap:round;stroke-linejoin:round;stroke-miterlimit:10;" cx="61.382" cy="37.896" rx="10.822" ry="3.304"/>
<path style="fill:none;stroke:#FFFFFF;stroke-width:2;stroke-linecap:round;stroke-linejoin:round;stroke-miterlimit:10;" d="
	M72.204,38.081v23.613c0,1.825-4.845,3.304-10.822,3.304S50.56,63.519,50.56,61.695v-2.988"/>
<path style="fill:none;stroke:#FFFFFF;stroke-width:2;stroke-linecap:round;stroke-linejoin:round;stroke-miterlimit:10;" d="
	M72.204,56.935c0,1.825-4.845,3.304-10.822,3.304c-4.616,0-8.557-0.882-10.112-2.125"/>
<path style="fill:none;stroke:#FFFFFF;stroke-width:2;stroke-linecap:round;stroke-linejoin:round;stroke-miterlimit:10;" d="
	M72.204,52.175c0,1.825-4.845,3.304-10.822,3.304c-3.332,0-6.312-0.46-8.298-1.183"/>
<path style="fill:none;stroke:#FFFFFF;stroke-width:2;stroke-linecap:round;stroke-linejoin:round;stroke-miterlimit:10;" d="
	M72.204,47.416c0,1.825-4.845,3.304-10.822,3.304c-2.926,0-5.582-0.355-7.53-0.931"/>
<path style="fill:none;stroke:#FFFFFF;stroke-width:2;stroke-linecap:round;stroke-linejoin:round;stroke-miterlimit:10;" d="
	M72.204,42.656c0,1.825-4.845,3.304-10.822,3.304c-3.7,0-6.966-0.567-8.918-1.432"/>
</svg>
