<?xml version="1.0" encoding="utf-8"?>
<!-- Generator: Adobe Illustrator 22.0.1, SVG Export Plug-In . SVG Version: 6.00 Build 0)  -->
<svg version="1.1" id="Слой_1" xmlns="http://www.w3.org/2000/svg" xmlns:xlink="http://www.w3.org/1999/xlink" x="0px" y="0px"
	 viewBox="0 0 82.983 57.4" style="enable-background:new 0 0 82.983 57.4;" xml:space="preserve">
<g>
	<path style="fill:none;stroke:#A1E1F7;stroke-width:2;stroke-linecap:round;stroke-linejoin:round;stroke-miterlimit:10;" d="
		M7.824,45.507V1h67.333v44.507 M56.75,45.644h19.434L81.983,56.4H1l5.798-10.756H28"/>
</g>
<line style="fill:none;stroke:#A1E1F7;stroke-width:2;stroke-linecap:round;stroke-linejoin:round;stroke-miterlimit:10;" x1="56.75" y1="10.92" x2="60.183" y2="14.352"/>
<line style="fill:none;stroke:#A1E1F7;stroke-width:2;stroke-linecap:round;stroke-linejoin:round;stroke-miterlimit:10;" x1="60.183" y1="10.92" x2="56.75" y2="14.352"/>
<g>
	<path style="fill:none;stroke:#A1E1F7;stroke-width:2;stroke-linecap:round;stroke-linejoin:round;stroke-miterlimit:10;" d="
		M47.556,52.25h-9.402c-0.995,0-1.691-0.448-2.04-1.244c-0.249-0.597-0.249-1.244-0.249-1.741v-0.298
		c-1.144-0.597-3.781-2.388-3.781-6.517c0-1.89-0.497-5.223-1.592-6.765c-1.343-1.841-0.348-2.885,0-3.184
		c0.995-0.846,2.129-0.796,3.025,0.149c0.298,0.298,1.303,3.731,1.602,4.228v-11.74c0-0.846,0.348-1.691,0.895-2.288
		c0.497-0.497,1.096-0.787,1.691-0.746c1.443,0.099,2.139,1.542,2.139,3.035v5.323c0.348-0.199,0.796-0.796,1.592-0.796
		c1.194,0,2.089,0.895,2.487,1.94c0.348-0.249,0.796-0.398,1.293-0.398c1.443,0,2.487,1.293,2.686,2.587
		c0.348-0.199,0.696-0.298,1.144-0.298c1.592,0,2.686,1.592,2.686,3.035v6.616c0,3.482,0,3.681-1.343,5.422l-0.199,0.249v0.497
		C50.193,50.111,50.143,52.25,47.556,52.25z"/>
	<path style="fill:none;stroke:#A1E1F7;stroke-width:2;stroke-linecap:round;stroke-linejoin:round;stroke-miterlimit:10;" d="
		M37.309,13.05v5.92"/>
	<path style="fill:none;stroke:#A1E1F7;stroke-width:2;stroke-linecap:round;stroke-linejoin:round;stroke-miterlimit:10;" d="
		M28.354,16.731l4.179,4.179"/>
	<path style="fill:none;stroke:#A1E1F7;stroke-width:2;stroke-linecap:round;stroke-linejoin:round;stroke-miterlimit:10;" d="
		M46.81,16.333l-4.179,4.179"/>
	
		<line style="fill:none;stroke:#A1E1F7;stroke-width:2;stroke-linecap:round;stroke-linejoin:round;stroke-miterlimit:10;" x1="43.925" y1="31.655" x2="43.925" y2="35.635"/>
	
		<line style="fill:none;stroke:#A1E1F7;stroke-width:2;stroke-linecap:round;stroke-linejoin:round;stroke-miterlimit:10;" x1="39.846" y1="30.362" x2="39.871" y2="35.635"/>
	
		<line style="fill:none;stroke:#A1E1F7;stroke-width:2;stroke-linecap:round;stroke-linejoin:round;stroke-miterlimit:10;" x1="47.905" y1="33.844" x2="47.905" y2="36.58"/>
</g>
<polyline style="fill:none;stroke:#A1E1F7;stroke-width:2;stroke-linecap:round;stroke-linejoin:round;stroke-miterlimit:10;" points="
	27.167,38 17.333,38 17.333,7.333 64.5,7.333 64.5,38 55.667,38 "/>
</svg>
