<?xml version="1.0" encoding="utf-8"?>
<!-- Generator: Adobe Illustrator 22.0.1, SVG Export Plug-In . SVG Version: 6.00 Build 0)  -->
<svg version="1.1" id="Слой_1" xmlns="http://www.w3.org/2000/svg" xmlns:xlink="http://www.w3.org/1999/xlink" x="0px" y="0px"
	 viewBox="0 0 71.648 51.924" style="enable-background:new 0 0 71.648 51.924;" xml:space="preserve">
<title>Consulting</title>
<desc>Created with Sketch.</desc>
<g>
	<g>
		<path style="fill:none;stroke:#A1E1F7;stroke-width:2;stroke-linecap:round;stroke-linejoin:round;stroke-miterlimit:10;" d="
			M14.01,11.327h22.984"/>
		<path style="fill:none;stroke:#A1E1F7;stroke-width:2;stroke-linecap:round;stroke-linejoin:round;stroke-miterlimit:10;" d="
			M14.01,20.52h14.626"/>
		<path style="fill:none;stroke:#A1E1F7;stroke-width:2;stroke-linecap:round;stroke-linejoin:round;stroke-miterlimit:10;" d="
			M58.418,15.654h2.786c2.505,0,4.907,0.995,6.678,2.766c1.771,1.771,2.766,4.173,2.766,6.678v11.534
			c0.022,2.519-0.963,4.943-2.736,6.732c-1.774,1.789-4.189,2.796-6.708,2.796c-0.41,0-0.799,0.184-1.059,0.501
			c-0.274,0.312-0.387,0.735-0.306,1.142l0.529,3.12l-6.909-4.513c-0.218-0.161-0.481-0.249-0.752-0.251H31.116
			c-5.205,0-9.429-4.211-9.444-9.416V34.18 M11.28,36.13l0.529-3.092c0.085-0.408-0.028-0.832-0.306-1.142
			c-0.26-0.318-0.648-0.502-1.059-0.501C5.228,31.394,1,27.166,1,21.95V10.416C1.015,5.211,5.239,1,10.444,1h30.088
			c5.205,0,9.429,4.211,9.444,9.416V21.95c0,5.216-4.228,9.444-9.444,9.444H18.941c-0.267,0.001-0.528,0.078-0.752,0.223
			L11.28,36.13z"/>
		<path style="fill:none;stroke:#A1E1F7;stroke-width:2;stroke-linecap:round;stroke-linejoin:round;stroke-miterlimit:10;" d="
			M55.799,27.94h1.839"/>
		<path style="fill:none;stroke:#A1E1F7;stroke-width:2;stroke-linecap:round;stroke-linejoin:round;stroke-miterlimit:10;" d="
			M49.976,36.994h7.661"/>
	</g>
</g>
</svg>
