<?xml version="1.0" encoding="utf-8"?>
<!-- Generator: Adobe Illustrator 22.0.1, SVG Export Plug-In . SVG Version: 6.00 Build 0)  -->
<svg version="1.1" id="Слой_1" xmlns="http://www.w3.org/2000/svg" xmlns:xlink="http://www.w3.org/1999/xlink" x="0px" y="0px"
	 viewBox="0 0 100 100" style="enable-background:new 0 0 100 100;" xml:space="preserve">
<circle style="fill:#A1E1F7;" cx="50" cy="50" r="50"/>
<g>
	<path style="fill:none;stroke:#FFFFFF;stroke-width:2;stroke-linecap:round;stroke-linejoin:round;stroke-miterlimit:10;" d="
		M42.364,29.161l0.853-0.259c4.438-1.348,9.129-1.348,13.566,0l0.853,0.259c0.731,3.393,4.418,5.917,10.311,7.049l-0.51,15.919
		c0,12.579-14.912,18.988-17.436,19.981c-2.523-0.993-17.436-7.405-17.436-20.016l-0.51-15.884
		C37.946,35.077,41.632,32.553,42.364,29.161z"/>
	<path style="fill:none;stroke:#FFFFFF;stroke-width:2;stroke-linecap:round;stroke-linejoin:round;stroke-miterlimit:10;" d="
		M55.893,63.282c-2.126,1.612-4.309,2.784-5.893,3.53c-4.118-1.94-12.575-6.877-12.575-14.701l-0.389-12.198
		c1.41-0.485,2.7-1.067,3.845-1.735"/>
	<path style="fill:none;stroke:#FFFFFF;stroke-width:2;stroke-linecap:round;stroke-linejoin:round;stroke-miterlimit:10;" d="
		M43.514,36.272c1.024-0.926,1.855-1.959,2.478-3.076c2.628-0.584,5.389-0.584,8.018,0c1.645,2.953,4.72,5.26,8.955,6.718
		L62.575,52.05v0.078c0,3.248-1.476,6.339-4.389,9.187"/>
	<path style="fill:none;stroke:#FFFFFF;stroke-width:2;stroke-linecap:round;stroke-linejoin:round;stroke-miterlimit:10;" d="
		M56.08,43.349l-7.61,10.654l-4.666-4.666"/>
</g>
</svg>
