<?xml version="1.0" encoding="utf-8"?>
<!-- Generator: Adobe Illustrator 22.0.1, SVG Export Plug-In . SVG Version: 6.00 Build 0)  -->
<svg version="1.1" id="Слой_1" xmlns="http://www.w3.org/2000/svg" xmlns:xlink="http://www.w3.org/1999/xlink" x="0px" y="0px"
	 viewBox="0 0 100 100" style="enable-background:new 0 0 100 100;" xml:space="preserve">
<circle style="fill:#A1E1F7;" cx="50" cy="50" r="50"/>
<g>
	<path style="fill:none;stroke:#FFFFFF;stroke-width:2;stroke-linecap:round;stroke-linejoin:round;stroke-miterlimit:10;" d="
		M28.265,48.666V50c0,11.951,9.728,21.679,21.679,21.679c5.114,0,10.117-1.834,14.008-5.114"/>
	<path style="fill:none;stroke:#FFFFFF;stroke-width:2;stroke-linecap:round;stroke-linejoin:round;stroke-miterlimit:10;" d="
		M71.735,50c0-11.951-9.728-21.679-21.679-21.679c-5.114,0-10.117,1.834-14.008,5.114"/>
	<path style="fill:none;stroke:#FFFFFF;stroke-width:2;stroke-linecap:round;stroke-linejoin:round;stroke-miterlimit:10;" d="
		M57.215,40.05H43.33 M43.38,59.49h13.835 M44.802,59.49v-3.326c0-1.164,0.499-2.245,1.413-2.993l4.157-3.326l4.157,3.326
		c0.915,0.748,1.413,1.829,1.413,3.076v3.242"/>
</g>
<polyline style="fill:none;stroke:#FFFFFF;stroke-width:2;stroke-linecap:round;stroke-linejoin:round;stroke-miterlimit:10;" points="
	23.457,52.223 28.265,48.332 33.185,52.223 "/>
<polyline style="fill:none;stroke:#FFFFFF;stroke-width:2;stroke-linecap:round;stroke-linejoin:round;stroke-miterlimit:10;" points="
	66.815,46.665 71.623,50.556 76.543,46.665 "/>
<path style="fill:none;stroke:#FFFFFF;stroke-width:2;stroke-linecap:round;stroke-linejoin:round;stroke-miterlimit:10;" d="
	M55.942,40.151v3.242c0,1.247-0.499,2.328-1.413,3.076l-4.157,3.326l-4.157-3.326c-0.915-0.748-1.413-1.829-1.413-2.993v-3.326"/>
</svg>
