<?xml version="1.0" encoding="utf-8"?>
<!-- Generator: Adobe Illustrator 22.0.1, SVG Export Plug-In . SVG Version: 6.00 Build 0)  -->
<svg version="1.1" id="Слой_1" xmlns="http://www.w3.org/2000/svg" xmlns:xlink="http://www.w3.org/1999/xlink" x="0px" y="0px"
	 viewBox="0 0 36 36" style="enable-background:new 0 0 36 36;" xml:space="preserve">
<g>
	<circle style="fill:#A1E1F7;" cx="18" cy="18" r="18"/>
</g>
<g>
	<path style="fill:#FFFFFF;" d="M23.947,14.953c0.019,0.078,0.029,0.205,0.029,0.381c0,1.036-0.195,2.065-0.586,3.091
		c-0.391,1.025-0.942,1.963-1.655,2.813c-0.713,0.85-1.636,1.538-2.769,2.065s-2.383,0.791-3.75,0.791
		c-1.719,0-3.292-0.459-4.717-1.377c0.215,0.02,0.458,0.029,0.732,0.029c1.425,0,2.705-0.439,3.838-1.318
		c-0.684,0-1.285-0.2-1.802-0.601c-0.518-0.4-0.875-0.903-1.069-1.509c0.195,0.02,0.381,0.029,0.557,0.029
		c0.273,0,0.546-0.029,0.82-0.088c-0.469-0.098-0.889-0.293-1.26-0.586c-0.371-0.293-0.664-0.649-0.879-1.069
		s-0.322-0.874-0.322-1.362v-0.059c0.429,0.254,0.889,0.391,1.377,0.41c-0.918-0.625-1.377-1.484-1.377-2.578
		c0-0.546,0.146-1.064,0.439-1.553c0.762,0.957,1.694,1.719,2.798,2.285c1.103,0.567,2.28,0.879,3.53,0.938
		c-0.04-0.234-0.059-0.469-0.059-0.703c0-0.839,0.297-1.563,0.894-2.168c0.596-0.605,1.313-0.908,2.153-0.908
		c0.898,0,1.65,0.322,2.256,0.967c0.703-0.136,1.357-0.381,1.963-0.732c-0.234,0.723-0.684,1.289-1.348,1.699
		c0.586-0.078,1.172-0.244,1.758-0.498C25.07,13.967,24.552,14.504,23.947,14.953z"/>
</g>
</svg>
