<?xml version="1.0" encoding="utf-8"?>
<!-- Generator: Adobe Illustrator 22.0.1, SVG Export Plug-In . SVG Version: 6.00 Build 0)  -->
<svg version="1.1" id="Слой_1" xmlns="http://www.w3.org/2000/svg" xmlns:xlink="http://www.w3.org/1999/xlink" x="0px" y="0px"
	 viewBox="0 0 25.443 26.8" style="enable-background:new 0 0 25.443 26.8;" xml:space="preserve">
<g>
	<path style="fill:none;stroke:#1B1D1E;stroke-width:1.3;stroke-linecap:round;stroke-linejoin:round;" d="M22.066,3.136
		c1.094,0.961,1.873,2.478,2.337,4.55s0.514,4.633,0.149,7.683c-0.099,0.762-0.257,1.459-0.472,2.089
		c-0.215,0.63-0.456,1.169-0.721,1.616c-0.265,0.448-0.572,0.854-0.92,1.218c-0.348,0.365-0.68,0.655-0.995,0.87
		c-0.315,0.215-0.655,0.406-1.019,0.572c-0.365,0.166-0.663,0.29-0.895,0.373c-0.232,0.083-0.489,0.157-0.771,0.224
		c-0.282,0.066-0.439,0.099-0.472,0.099c-0.232,0.099-0.63,0.199-1.193,0.298c-0.564,0.099-1.459,0.207-2.685,0.323
		c-1.227,0.116-2.453,0.108-3.68-0.025c-0.696,0.762-1.193,1.309-1.492,1.641c-0.099,0.099-0.232,0.24-0.398,0.423
		c-0.166,0.182-0.282,0.307-0.348,0.373c-0.066,0.066-0.174,0.174-0.323,0.323c-0.149,0.149-0.257,0.224-0.323,0.224
		s-0.182,0.033-0.348,0.099c-0.166,0.066-0.282,0.05-0.348-0.05c-0.133-0.033-0.249-0.099-0.348-0.199
		c-0.099-0.099-0.166-0.207-0.199-0.323c-0.033-0.116-0.058-0.232-0.075-0.348s-0.025-0.207-0.025-0.273l-0.05-0.099l0.05-2.586
		h-0.05c-0.696-0.199-1.343-0.472-1.939-0.82s-1.086-0.738-1.467-1.169s-0.729-0.903-1.044-1.417s-0.547-1.036-0.696-1.566
		c-0.149-0.53-0.282-1.077-0.398-1.641s-0.182-1.111-0.199-1.641c-0.017-0.53-0.033-1.044-0.05-1.542
		c-0.017-0.497-0.008-0.945,0.025-1.343C0.749,7.479,1.578,4.877,3.17,3.286C4.164,2.39,5.49,1.727,7.148,1.296
		s3.083-0.646,4.277-0.646h1.74c1.724,0.033,3.29,0.224,4.699,0.572c1.409,0.348,2.379,0.68,2.909,0.995
		C21.303,2.531,21.734,2.838,22.066,3.136z M18.635,17.01c-0.332,0.564-0.729,1.019-1.193,1.367s-0.928,0.439-1.392,0.273
		c-0.564-0.166-1.367-0.53-2.412-1.094s-1.931-1.127-2.66-1.691c-0.796-0.63-1.508-1.343-2.138-2.138
		c-0.53-0.696-1.028-1.459-1.492-2.287c-0.332-0.564-0.605-1.077-0.82-1.542C6.311,9.435,6.17,9.104,6.103,8.905l-0.05-0.249
		C5.888,8.192,5.979,7.728,6.327,7.264C6.675,6.8,7.131,6.402,7.695,6.07c0.464-0.232,0.862-0.166,1.193,0.199
		c0.398,0.497,0.696,0.862,0.895,1.094c0.232,0.332,0.481,0.729,0.746,1.193c0.298,0.564,0.232,1.011-0.199,1.343l-0.597,0.448
		c-0.099,0.066-0.166,0.157-0.199,0.273s-0.05,0.224-0.05,0.323v0.099c0.033,0.099,0.075,0.224,0.124,0.373
		c0.05,0.149,0.182,0.431,0.398,0.845c0.215,0.414,0.464,0.796,0.746,1.144c0.282,0.348,0.68,0.704,1.193,1.069
		c0.514,0.365,1.086,0.63,1.716,0.796c0.298,0,0.53-0.099,0.696-0.298l0.497-0.597c0.332-0.431,0.762-0.497,1.293-0.199
		c0.928,0.53,1.691,1.077,2.287,1.641C18.8,16.148,18.867,16.546,18.635,17.01z M14.218,3.725c1.923,0,3.514,0.622,4.774,1.865
		s1.89,2.926,1.89,5.047 M13.815,6.366c1.392,0.099,2.478,0.58,3.257,1.442c0.779,0.862,1.152,1.923,1.119,3.183 M13.312,9.106
		c1.426,0.066,2.171,0.829,2.238,2.287"/>
</g>
</svg>
