<?xml version="1.0" encoding="utf-8"?>
<!-- Generator: Adobe Illustrator 22.0.1, SVG Export Plug-In . SVG Version: 6.00 Build 0)  -->
<svg version="1.1" id="Слой_1" xmlns="http://www.w3.org/2000/svg" xmlns:xlink="http://www.w3.org/1999/xlink" x="0px" y="0px"
	 viewBox="0 0 36 36" style="enable-background:new 0 0 36 36;" xml:space="preserve">
<g>
	<circle style="fill:#A1E1F7;" cx="18" cy="18" r="18"/>
</g>
<g>
	<path style="fill:#FFFFFF;" d="M25.523,13.957c-0.059,0.293-0.288,0.771-0.688,1.436c-0.4,0.665-0.767,1.245-1.099,1.743
		s-0.508,0.757-0.527,0.776c-0.117,0.176-0.176,0.303-0.176,0.381s0.059,0.215,0.176,0.41c0.254,0.273,0.469,0.498,0.645,0.674
		s0.371,0.381,0.586,0.615s0.415,0.464,0.601,0.688s0.352,0.454,0.498,0.688s0.249,0.43,0.308,0.586
		c0.137,0.488-0.059,0.732-0.586,0.732h-1.729c-0.137,0-0.254-0.02-0.352-0.059s-0.205-0.107-0.322-0.205s-0.225-0.205-0.322-0.322
		s-0.244-0.283-0.439-0.498s-0.391-0.42-0.586-0.615c-0.781-0.742-1.357-1.113-1.729-1.113c-0.234,0-0.371,0.068-0.41,0.205
		s-0.059,0.527-0.059,1.172c0.02,0.313,0.029,0.566,0.029,0.762c0,0.234-0.078,0.405-0.234,0.513s-0.498,0.161-1.025,0.161
		c-0.918,0-1.846-0.273-2.783-0.82s-1.758-1.328-2.461-2.344c-0.664-0.898-1.216-1.792-1.655-2.681s-0.728-1.567-0.864-2.036
		s-0.205-0.801-0.205-0.996c0-0.332,0.195-0.498,0.586-0.498h1.729c0.215,0,0.376,0.049,0.483,0.146s0.2,0.273,0.278,0.527
		c0.41,1.191,0.913,2.256,1.509,3.193s1.05,1.406,1.362,1.406c0.117,0,0.2-0.044,0.249-0.132s0.073-0.259,0.073-0.513V15.39
		c-0.02-0.273-0.068-0.508-0.146-0.703s-0.156-0.337-0.234-0.425s-0.151-0.181-0.22-0.278s-0.103-0.186-0.103-0.264
		s0.02-0.146,0.059-0.205s0.093-0.107,0.161-0.146s0.142-0.059,0.22-0.059h2.725c0.313,0,0.469,0.215,0.469,0.645v3.398
		c0,0.332,0.093,0.498,0.278,0.498s0.454-0.176,0.806-0.527c0.371-0.41,0.732-0.908,1.084-1.494s0.615-1.074,0.791-1.465
		l0.264-0.557c0.137-0.332,0.381-0.498,0.732-0.498h1.729C25.464,13.313,25.64,13.527,25.523,13.957z"/>
</g>
</svg>
